<svg xmlns="http://www.w3.org/2000/svg" viewBox="0 0 751.5 751.4"><defs><style>.cls-1{fill:#fff;}.cls-2{fill:#ffdcad;}.cls-3{fill:#b3b3b3;}.cls-4{fill:#b3b4b4;}.cls-5{fill:#868491;}.cls-6{fill:#67cad5;}.cls-7{fill:#b4e3f5;}.cls-8,.cls-9{fill:#676767;}.cls-13,.cls-9{stroke:#010101;stroke-miterlimit:10;}.cls-9{stroke-width:0.1px;}.cls-10{fill:#5c5c5c;}.cls-11{fill:#fed208;}.cls-12{fill:#ed5f55;}.cls-13{fill:none;stroke-width:0.5px;}.cls-14{fill:#807f7d;}.cls-15{fill:#010101;}.cls-16{fill:#f8961d;}</style></defs><title>admin</title><g id="Fond"><path class="cls-1" d="M898.8,415.56A363.71,363.71,0,0,1,434.89,765.35c-70.65-20.18-134.06-62.1-180.82-118.71a363.38,363.38,0,0,1-81.74-203.11C166.7,368,184.57,291.85,223.88,227.07A367.21,367.21,0,0,1,385,84c69.13-31.47,148.21-40.14,222.6-25A363.09,363.09,0,0,1,898.8,415.56c0,7.72,12,7.73,12,0-.14-77.63-24.26-154.33-69.39-217.58A379.31,379.31,0,0,0,663.86,62.48c-73.95-27.1-156.45-29.93-232.15-8.29A375.95,375.95,0,0,0,213.52,610.11C252.67,674.64,311.36,726.94,380.19,758a379.18,379.18,0,0,0,230.64,25.67c74.4-15.15,143.44-53.6,195.86-108.48,52.62-55.08,88-126,99.57-201.29a387.43,387.43,0,0,0,4.54-58.33C910.82,407.84,898.82,407.82,898.8,415.56Z" transform="translate(-159.3 -39.83)"/></g><g id="Visage"><ellipse class="cls-2" cx="380.7" cy="400.17" rx="168" ry="198"/><path class="cls-3" d="M558.7,681.23l23-92.49c1-3.07-2.43-5.61-6.29-5.61H504.06c-3.87,0-6.7,3-5.75,6.06l22,92.09C523.78,698.33,555.31,698.54,558.7,681.23Z" transform="translate(-159.3 -39.83)"/><path class="cls-4" d="M565.93,683.23l17.19-69.09c1.93-7.77,4.25-15.55,5.82-23.41,3.52-17.62-18.76-15.11-29.44-15.11H516c-3.86,0-7.76-.16-11.62,0-8.87.36-15,6.94-13.19,15.89,4.94,24.06,11.47,47.9,17.19,71.79,2.2,9.2,3.26,22.45,9.9,29.75,13,14.36,43,10.54,47.69-9.82,2.16-9.4-12.3-13.41-14.46-4-1.61,7-10.83,8.81-17.52,6.52-4.75-1.63-5.82-4.24-6.95-9l-10.55-44.05L506,589.18a5.46,5.46,0,0,0-.38-1.59c-.06-.08,0-.28-.08-.35-.8-.72-2.31,2.79-1.48,3.38.63.45,3.22,0,4,0h63.62c.78,0,2.27.3,3,0,1.33-.56.42,1.33,0-1v-4c-1.52,10.61-5.17,21.26-7.75,31.65l-12.48,50.15-2.94,11.82C549.14,688.61,563.6,692.6,565.93,683.23Z" transform="translate(-159.3 -39.83)"/><path class="cls-4" d="M457.14,550.27l73.23-15.86,10.45-2.26c8.36-1.81,6.36-14.75-2-14.73-21.22.05-43,1.24-63.68,6.14-10.11,2.39-26.83,6.63-27.5,19.48-.51,9.65,14.49,9.62,15,0,0,.68-.58,1.26-.07.73-.77.79.09.93-.17.56.22.32-1.26,1-.21.31.31-.19.55-.56.84-.79-1.18.91.84-.49,1.27-.74a28.3,28.3,0,0,1,2.9-1.46c4.84-2.11,11.43-3.61,17.05-4.73,17.91-3.56,36.35-4.45,54.58-4.5l-2-14.73L463.6,533.55l-10.45,2.26C443.72,537.85,447.71,552.32,457.14,550.27Z" transform="translate(-159.3 -39.83)"/><path class="cls-4" d="M539.18,532.15,612.41,548l10.45,2.26c4.5,1,9.76-2.11,9.49-7.23-.68-12.85-17.39-17.09-27.5-19.48-20.72-4.9-42.46-6.09-63.68-6.14-9.65,0-9.67,15,0,15,18.22,0,36.67.93,54.58,4.5,5.7,1.13,12,2.53,17.12,4.76.59.26,1.73.82,2.49,1.25.48.27,2.26,1.45,1.86,1.13s1.6.93.66.64c-.47-.14-.06.13-.25-.43-.46-1.33-.12,1.61-.27-1.22l9.49-7.23-73.23-15.86-10.45-2.26C533.75,515.65,529.73,530.1,539.18,532.15Z" transform="translate(-159.3 -39.83)"/><path class="cls-4" d="M517.91,533.53c7.13-2.49,14.62-5.36,22.28-5.36,7.45,0,14.66,2.82,21.55,5.36,7.26,2.68,10.39-8.92,3.19-11.57-7.94-2.93-16.17-5.8-24.74-5.79-8.78,0-17.29,2.93-25.47,5.79-7.24,2.53-4.13,14.13,3.19,11.57Z" transform="translate(-159.3 -39.83)"/><path class="cls-4" d="M514.72,530.78c8,2.5,16.22,4.8,24.66,4.78,8.7,0,17.26-2.39,25.56-4.78,7.41-2.13,4.26-13.71-3.19-11.57-7.28,2.09-14.73,4.33-22.37,4.35-7.38,0-14.49-2.17-21.47-4.35-7.39-2.31-10.55,9.27-3.19,11.57Z" transform="translate(-159.3 -39.83)"/></g><g id="Lunette"><circle class="cls-5" cx="311.63" cy="409.36" r="46.62"/><path class="cls-6" d="M488.68,479.59a35.14,35.14,0,1,0-35.14-60.86" transform="translate(-159.3 -39.83)"/><path class="cls-7" d="M453.68,418.8a35.14,35.14,0,1,0,35.14,60.86" transform="translate(-159.3 -39.83)"/><path class="cls-5" d="M518.12,453.51c-.36,1.06.22.39-.42.71.37-.19,1-1,1.27-1.32a21.62,21.62,0,0,1,3.27-2.32,36.77,36.77,0,0,1,10.64-4.2,29.51,29.51,0,0,1,27.71,7.51c5.6,5.32,14.1-3.15,8.49-8.49a42,42,0,0,0-39.39-10.6c-8.21,1.91-20.17,6.69-23.14,15.51-2.47,7.33,9.11,10.48,11.57,3.19Z" transform="translate(-159.3 -39.83)"/><path class="cls-5" d="M607.06,496.27c-25.75,0-46.62-22.74-46.62-48.48S581.32,403,607.06,403a46.62,46.62,0,0,1,46.62,46.62" transform="translate(-159.3 -39.83)"/><path class="cls-5" d="M653.68,449.66a46.62,46.62,0,0,1-46.62,46.62" transform="translate(-159.3 -39.83)"/><path class="cls-6" d="M624.8,480.06a35.14,35.14,0,0,0-35.14-60.86" transform="translate(-159.3 -39.83)"/><path class="cls-7" d="M589.8,419.26a35.14,35.14,0,0,0,35.14,60.86" transform="translate(-159.3 -39.83)"/><line class="cls-5" x1="266.58" y1="407.83" x2="215.38" y2="391.33"/><path class="cls-5" d="M427.48,441.87l-51.2-16.5c-7.37-2.37-10.52,9.21-3.19,11.57l51.2,16.5c7.37,2.37,10.52-9.21,3.19-11.57Z" transform="translate(-159.3 -39.83)"/><line class="cls-5" x1="494.38" y1="404.83" x2="545.58" y2="388.33"/><path class="cls-5" d="M655.28,450.44l51.2-16.5c7.32-2.36,4.19-13.95-3.19-11.57l-51.2,16.5c-7.32,2.36-4.19,13.95,3.19,11.57Z" transform="translate(-159.3 -39.83)"/></g><g id="Calque_1" data-name="Calque 1"><path class="cls-8" d="M679.57,317c3.52,36.77-60.37,74.71-143.21,84.74S383.55,390.11,380,353.32v-.21l299.57-36.26Z" transform="translate(-159.3 -39.83)"/><polygon class="cls-8" points="520.08 276.14 520.2 277.21 220.7 313.45 220.27 309.89 212.35 231.87 511.89 198.47 520.08 276.14"/><ellipse class="cls-9" cx="518.4" cy="226.97" rx="5.86" ry="9.01" transform="translate(30.8 648.09) rotate(-78.19)"/><path class="cls-10" d="M523.72,258.8c81.79-8.86,151.58,16.23,155.9,56S621,392.56,539.26,401.43" transform="translate(-159.3 -39.83)"/><polygon class="cls-11" points="189.36 340.88 182.27 365.39 186.04 366.18 189.36 340.88"/><path class="cls-11" d="M347.22,380.31l-7.09,24.51a1.51,1.51,0,0,0,1,1.85l3.77.79a1.53,1.53,0,0,0,1.9-1.45l3.33-25.3c.25-1.91-2.75-1.89-3,0L343.84,406l1.9-1.45-3.77-.79,1,1.85,7.09-24.51A1.5,1.5,0,0,0,347.22,380.31Z" transform="translate(-159.3 -39.83)"/><circle class="cls-12" cx="350.25" cy="373.13" r="7.74" transform="translate(-245.99 599.74) rotate(-78.19)"/><line class="cls-13" x1="212.35" y1="230.97" x2="192.53" y2="325.73"/><line class="cls-13" x1="228.29" y1="161.91" x2="227.92" y2="163.71"/><rect class="cls-10" x="527.58" y="254.09" width="148.79" height="71.9" transform="translate(-187.05 26.73) rotate(-6.19)"/><polygon class="cls-14" points="590.33 159.85 400.49 274.48 127.14 214.85 333.04 108.73 590.33 159.85"/><path class="cls-15" d="M518.12,226.92l-111-23.22-15.78-3.3c-.31-.07-.45.41-.13.48l111,23.22L518,227.4c.31.07.45-.41.13-.48Z" transform="translate(-159.3 -39.83)"/><path class="cls-13" d="M387.6,201.74c.21-1,2-1.44,4-1" transform="translate(-159.3 -39.83)"/><rect class="cls-16" x="499.13" y="221.69" width="27.73" height="4.31" transform="translate(-180.44 16.75) rotate(-6.19)"/><path class="cls-16" d="M499.44,227.48c.59,5.4,6.94,6.38,14.55,5.56s13.61-3.15,13-8.55" transform="translate(-159.3 -39.83)"/><ellipse class="cls-11" cx="512.82" cy="222.26" rx="13.87" ry="5.64" transform="translate(-180.27 16.73) rotate(-6.19)"/></g></svg>