<svg xmlns="http://www.w3.org/2000/svg" viewBox="0 0 1200.01 236.63"><defs><style>.cls-1{fill:#005a2f;}.cls-2{fill:#168602;}.cls-3{fill:#00ab3c;}.cls-4{fill:#57c564;}.cls-5{fill:#50ae57;}.cls-6{fill:#a4a3a3;}.cls-7{fill:#787878;}.cls-8{fill:#298942;}</style></defs><title>les buisson</title><g id="Layer_1" data-name="Layer 1"><path id="arbuste5" class="cls-1" d="M1199.95,1714c0-.28,0,3,0,0,.36-8-.7-16.36-6.59-21.14a16.36,16.36,0,0,0-19.89-1,21.2,21.2,0,0,0-4.12-4.52c-8.87-7.19-20.84-4.24-26.73,6.59a25.5,25.5,0,0,0-1.23,2.64c-5.48-3.11-11.95-1.79-16.3,3.22a12.7,12.7,0,0,0-13.91,3.06l-.29-.26c-9.39-7.61-21.42-6-28,3.39a31.57,31.57,0,0,0-9.79-14.18c-10.92-8.85-24.76-6.89-30.9,4.4a23.34,23.34,0,0,0-2.1,5.48c-9.82-7.25-21.08-6.6-25.61,1.72-.15.28-.26.57-.4.85-6.17-1.94-12.93.94-16.66,7.78a21.57,21.57,0,0,0-2.53,9.22,16.75,16.75,0,0,0-6,6.42c-4.71,8.64-2.79,20.29,4.29,26,.2.16.4.29.6.43,1.56,7.38,7,12.89,13.57,12.9l177.57.43c6.08,0,13.06-4.8,15-11.43,0-3-.07-3.93-.05-9C1200,1735,1200,1726,1199.95,1714Z" transform="translate(0 -1683.37)"/><path id="arbuste4" class="cls-2" d="M848.59,1715.75a15.16,15.16,0,0,1,12.13,1.06c.92-7.37,5.43-13.8,12.06-16a15.29,15.29,0,0,1,13.5,1.88c2.14-9,9.19-15.65,17.74-15.89,6.52-.18,12.37,3.42,16,9.05a13.77,13.77,0,0,1,18-.38,16.72,16.72,0,0,1,7.32-5c6.69-2.26,13.65.39,18,6.11a15.47,15.47,0,0,1,21.13-1.14c2.94-5.4,8.1-9.06,14.09-9.23a16.38,16.38,0,0,1,13.29,6.57,13.67,13.67,0,0,1,15.95-.84,13.85,13.85,0,0,1,7.63-2.6,14.48,14.48,0,0,1,11.23,5.1,17.2,17.2,0,0,1,12.67-6.38c10.15-.29,18.65,8.92,19,20.57q0,1.1,0,2.17a15.38,15.38,0,0,1,7.76-2.39c9.51-.27,17.47,8.36,17.78,19.26s-7.15,20-16.66,20.24l.08,2.92c.23,8.21-5.44,15.1-12.6,15.3l-213,6c-7.16.2-13.21-6.35-13.44-14.57l-.12-4.24a19,19,0,0,1-10.86-13C834.33,1729.8,839.48,1718.82,848.59,1715.75Z" transform="translate(0 -1683.37)"/><path id="arbuste3" class="cls-3" d="M956.3,1720.36a15.79,15.79,0,0,0-10.93,2.45,15.84,15.84,0,0,0-25-7.86,17.53,17.53,0,0,0-31.55-1,14.13,14.13,0,0,0-16.42,2.08,15.86,15.86,0,0,0-22.93,4.21,15.82,15.82,0,0,0-19.4,1.89,15.85,15.85,0,0,0-25.28,1.52,14.12,14.12,0,0,0-14.65,1.44,14.14,14.14,0,0,0-16.9,4.48A16.94,16.94,0,0,0,746.08,1745a17.15,17.15,0,0,0,.3,1.72,15.87,15.87,0,1,0-3.59,30.64l.28,2.33a12,12,0,0,0,13.34,10.48l195-23.39a12,12,0,0,0,10.48-13.34l-.41-3.38a15.86,15.86,0,0,0-5.15-29.74Z" transform="translate(0 -1683.37)"/><path id="arbuste1" class="cls-1" d="M207.27,1742.17c-.19-.21-.39-.38-.58-.57,1.56-7.92-.22-16.35-5.35-22a16.42,16.42,0,0,0-19.56-4,21.24,21.24,0,0,0-3.41-5.1c-7.71-8.45-20-7.32-27.49,2.52a25.52,25.52,0,0,0-1.61,2.43c-5-3.9-11.58-3.56-16.64.74a12.75,12.75,0,0,0-14.25.94l-.25-.3c-8.17-8.94-20.34-9.12-28.23-.84a31.61,31.61,0,0,0-7.58-15.51c-9.5-10.41-23.51-10.53-31.3-.28a23.35,23.35,0,0,0-2.9,5.12c-8.65-8.65-19.91-9.7-25.65-2.14-.19.25-.35.52-.52.79-5.82-2.85-13-1-17.69,5.21a21.58,21.58,0,0,0-3.89,8.75C0,1721,0,1715,0,1723c0,11.64,0,15,0,26,0,.25,0,1,0,1,.44,7.54-.6,14.14,5.87,15.13l176,27.06c6,.93,11.91-3,14.85-9.28a20.28,20.28,0,0,0,11-7.63C215.18,1765.44,215,1750.62,207.27,1742.17Z" transform="translate(0 -1683.37)"/><path id="arbuste2" class="cls-3" d="M390.05,1760.28a15.79,15.79,0,0,0-11.19-.43,15.84,15.84,0,0,0-22.17-14,17.53,17.53,0,0,0-30.25-9,14.13,14.13,0,0,0-16.4-2.2,15.86,15.86,0,0,0-23.24-1.81,15.82,15.82,0,0,0-19.24-3.15,15.85,15.85,0,0,0-24.83-5,14.12,14.12,0,0,0-14.53-2.36,14.14,14.14,0,0,0-17.48,0,16.94,16.94,0,0,0-30.19,8,17.15,17.15,0,0,0-.15,1.74,15.87,15.87,0,1,0-11.32,28.7l-.33,2.32a12,12,0,0,0,10.21,13.55l194.44,27.33a12,12,0,0,0,13.55-10.21l.47-3.37a15.86,15.86,0,0,0,2.64-30.07Z" transform="translate(0 -1683.37)"/><path id="Herbe" class="cls-4" d="M185,1920H1200V1755.52c-233.4,5.58-279,9.14-381.21,21.85-8.29,1-27.33,4.8-41.47,5.15l-380.71,9.41c-29.36.73-50.7-3.4-86.76-7.91-67.45-8.44-188.05-25-309.84-34v170H185" transform="translate(0 -1683.37)"/></g><g id="rocher"><g id="ombre"><path class="cls-5" d="M508.4,1881.19,524,1866.77a1.06,1.06,0,0,0-1.06-1.79l-14.46,4.76a1.81,1.81,0,0,0-1.24,1.6l-.62,9A1.06,1.06,0,0,0,508.4,1881.19Z" transform="translate(0 -1683.37)"/><path class="cls-5" d="M609.7,1853.43l5.64,22.68a1.06,1.06,0,0,0,2,.17l5.64-12.89a1.06,1.06,0,0,1,2,0l2.25,5.21a1.06,1.06,0,0,0,1.87.16l4.65-7.13a1.06,1.06,0,0,1,1.88.19l2.52,6.34a1.06,1.06,0,0,0,2-.08l3.84-12.51a1.07,1.07,0,0,0-1.07-1.38l-4.65.22h-.14l-10.79-.9v0l-16.51-1.37A1.07,1.07,0,0,0,609.7,1853.43Z" transform="translate(0 -1683.37)"/><path class="cls-5" d="M531.24,1862.66h0l-2.18.17a1.07,1.07,0,0,0-.91,1.46l7.73,19.55a1.06,1.06,0,0,0,2-.13l2.67-10.42a1.06,1.06,0,0,1,2-.13l1.16,2.94a1.06,1.06,0,0,0,1.93.12l3.24-6a1.06,1.06,0,0,1,1.89,0l4.55,9.19a1.06,1.06,0,0,0,2-.18l1.42-5,0-.08,1.92-5.19a1.06,1.06,0,0,1,1.91-.19l2.78,4.54a1.06,1.06,0,0,0,1.84,0l2.89-5.27a1.06,1.06,0,0,1,1.9.06l5.37,11.42a1.06,1.06,0,0,0,2-.25l4-20.9a1.07,1.07,0,0,0-1.2-1.26l-14.33,2.15v0l-5.07.76h-.08l-9.73.74h-.16l-5.88.44v0l-7.71.73Z" transform="translate(0 -1683.37)"/><path class="cls-5" d="M522.11,1893.78l-4.44-2.3-.22-.13-7.57-5.18-2.34-1.45a2.12,2.12,0,0,1-.9-1.13h0a1.07,1.07,0,0,1,.3-1.13l2.76-2.48,8-7.41,8.48-7.85a2.12,2.12,0,0,1,2.81-.05l12.57,10.75a2.13,2.13,0,0,1,.42,2.74L532.72,1893a2.12,2.12,0,0,1-1.79,1l-7.84,0A2.12,2.12,0,0,1,522.11,1893.78Z" transform="translate(0 -1683.37)"/><path class="cls-5" d="M620.37,1875.79l-2.88-16.45a4.43,4.43,0,0,0-4-3.65l-13.06-1.07a4.43,4.43,0,0,0-4.72,3.63l-1.76,9.77a24.16,24.16,0,0,0,10.37,24.38l2.76,1.84a4.43,4.43,0,0,0,6.48-1.83l6.47-14A4.43,4.43,0,0,0,620.37,1875.79Z" transform="translate(0 -1683.37)"/><path class="cls-5" d="M578.49,1903.85l17.77-4.32.06,0,12.87-4a1.07,1.07,0,0,0,.72-1.29l-9.85-38.41a1.06,1.06,0,0,0-1.34-.75l-11.88,3.65-.1,0-13.49,5.61-9.49,4.17a8,8,0,0,0-1,.5l-5.91,3.61c-1.22.75-2.14,2.5-1.33,3.69l2.45,4.39,7.69,14.68a8.86,8.86,0,0,0,2.88,3.54l5.56,4A5.29,5.29,0,0,0,578.49,1903.85Z" transform="translate(0 -1683.37)"/></g><path class="cls-6" d="M567.66,1820.51l18.76,1.4,14.38,2-3.67,41.55-13.47-1.82-14.28-3.34-10.11-2.58a7,7,0,0,1-.89-.29l-6.48-2.62c-1.33-.54-2.51-2.12-1.91-3.42l1.7-4.72,5.2-15.7a8.85,8.85,0,0,1,2.26-4l5.18-5.23A4.23,4.23,0,0,1,567.66,1820.51Z" transform="translate(0 -1683.37)"/><path class="cls-7" d="M614,1840.71l0,17.81a3.37,3.37,0,0,1-2.52,3.25L597,1865.52a3.37,3.37,0,0,1-4-2.1l-4-10.81a23.1,23.1,0,0,1,5.77-24.68l3.79-3.61a3.37,3.37,0,0,1,5.09.52l9.68,13.95A3.37,3.37,0,0,1,614,1840.71Z" transform="translate(0 -1683.37)"/><path class="cls-6" d="M514.33,1840.08l-4.24,3.22-.1.08-6.62,6.44L501,1851.9a1.05,1.05,0,0,0-.34.63l-.16,1.07,3.74,2.33,9.16,5.91,10.5,6.77a1.05,1.05,0,0,0,1.38-.21L537,1854.23a1.05,1.05,0,0,0,0-1.38l-12.69-14.1a1.05,1.05,0,0,0-1-.33l-8.56,1.45A1.05,1.05,0,0,0,514.33,1840.08Z" transform="translate(0 -1683.37)"/><polygon class="cls-8" points="528.78 185.33 528.77 185.33 528.77 185.33 524.71 185.75 530.98 159.05 538.71 175.6 540.83 166.54 548.43 175.64 553.46 160.31 557.25 167.88 561.52 174.9 565.53 165.67 572.37 173.75 577.98 155.36 587.93 180.92 569.97 181.59 569.99 181.56 564.18 181.77 553.22 182.94 553.03 182.97 553.03 182.96 546.43 183.66 546.44 183.63 537.76 184.4 528.78 185.33"/><polygon class="cls-8" points="609.65 179.5 611.64 151.64 622.49 167.98 624.85 158.17 633.4 167.32 635.84 155.69 643.82 171.37 637.64 172.16 627.1 174.92 627.12 174.95 609.65 179.5"/><path class="cls-7" d="M500.52,1853.52l24.19,15.6-20.61-3a.75.75,0,0,1-.62-.56Z" transform="translate(0 -1683.37)"/></g><g id="herbe-2" data-name="herbe"><path id="Ombre_herbe" data-name="Ombre herbe" class="cls-5" d="M94.3,1790.19l13.93,5.52a1.4,1.4,0,0,1-.83,2.67h0a1.4,1.4,0,0,0-1,2.56l17.09,10.45a1.4,1.4,0,0,1-1.15,2.53l-21.77-6.84a1.4,1.4,0,0,0-1.41,2.33l11.44,11.48a1.4,1.4,0,0,1-1.59,2.26l-9.35-4.4a1.4,1.4,0,0,0-1.57,2.27l8.42,8.17a1.4,1.4,0,0,1-1.7,2.21l-11.11-6.69a1.4,1.4,0,0,0-2.1,1.46l1.32,6.94a1.4,1.4,0,0,1-2.31,1.31l-4.52-4a1.4,1.4,0,0,0-2.33,1.19l.77,7.37a1.4,1.4,0,0,1-2.62.83l-13.67-24.44h0c-1.9-3.24.73-10.62,6.43-17.45,5.86-7,12.87-11,16.3-9.35h0l3.26,1.6Zm-4.46.93-19.71,23.61" transform="translate(0 -1683.37)"/><path id="Ombre_herbe-2" data-name="Ombre herbe" class="cls-5" d="M1096.3,1790.19l13.93,5.52a1.4,1.4,0,0,1-.83,2.67h0a1.4,1.4,0,0,0-1,2.56l17.09,10.45a1.4,1.4,0,0,1-1.15,2.53l-21.77-6.84a1.4,1.4,0,0,0-1.41,2.33l11.44,11.48a1.4,1.4,0,0,1-1.59,2.26l-9.35-4.4a1.4,1.4,0,0,0-1.57,2.27l8.42,8.17a1.4,1.4,0,0,1-1.7,2.21l-11.11-6.69a1.4,1.4,0,0,0-2.1,1.46l1.32,6.94a1.4,1.4,0,0,1-2.31,1.31l-4.52-4a1.4,1.4,0,0,0-2.33,1.19l.77,7.37a1.4,1.4,0,0,1-2.62.83l-13.67-24.44h0c-1.9-3.24.73-10.62,6.43-17.45,5.86-7,12.87-11,16.3-9.35h0l3.26,1.6Zm-4.46.93-19.71,23.61" transform="translate(0 -1683.37)"/><path id="herbe-3" data-name="herbe" class="cls-8" d="M1105.65,1802.95l4.69-14.23a1.4,1.4,0,0,0-2.58-1.08h0a1.4,1.4,0,0,1-2.63-.84l2.93-19.82a1.4,1.4,0,0,0-2.68-.74l-8.7,21.09a1.4,1.4,0,0,1-2.69-.41l-1.48-16.14a1.4,1.4,0,0,0-2.75-.23l-2.61,10a1.4,1.4,0,0,1-2.75-.25l-.88-11.7a1.4,1.4,0,0,0-2.78-.11l-2,12.82a1.4,1.4,0,0,1-2.47.67l-4.48-5.46a1.4,1.4,0,0,0-2.48.94l.2,6.05a1.4,1.4,0,0,1-2.41,1l-5.17-5.31a1.4,1.4,0,0,0-2.31,1.48l10,26.16h0c1.27,3.53,8.62,6.24,17.52,6.24,9.14,0,16.66-2.86,17.62-6.53h0l.86-3.52Zm-3.57,2.83-30.76,0" transform="translate(0 -1683.37)"/><path id="herbe-4" data-name="herbe" class="cls-8" d="M103.65,1802.95l4.69-14.23a1.4,1.4,0,0,0-2.58-1.08h0a1.4,1.4,0,0,1-2.63-.84l2.93-19.82a1.4,1.4,0,0,0-2.68-.74l-8.7,21.09a1.4,1.4,0,0,1-2.69-.41l-1.48-16.14a1.4,1.4,0,0,0-2.75-.23l-2.61,10a1.4,1.4,0,0,1-2.75-.25l-.88-11.7a1.4,1.4,0,0,0-2.78-.11l-2,12.82a1.4,1.4,0,0,1-2.47.67l-4.48-5.46a1.4,1.4,0,0,0-2.48.94l.2,6.05a1.4,1.4,0,0,1-2.41,1l-5.17-5.31a1.4,1.4,0,0,0-2.31,1.48l10,26.16h0c1.27,3.53,8.62,6.24,17.52,6.24,9.14,0,16.66-2.86,17.62-6.53h0l.86-3.52Zm-3.57,2.83-30.76,0" transform="translate(0 -1683.37)"/></g></svg>