<svg xmlns="http://www.w3.org/2000/svg" viewBox="0 0 541.25 464.77"><defs><style>.cls-1{fill:#ecb55c;}.cls-2{fill:#358b7e;}.cls-3{fill:#8f6e3f;}.cls-4{fill:#23353f;}.cls-5{fill:#d6d6d6;}</style></defs><title>Icon liste eleve</title><g id="Bureau_Table" data-name="Bureau+Table"><g id="Tableau"><rect class="cls-1" x="76.12" width="237.69" height="149.99" rx="19.7" ry="19.7"/><rect class="cls-2" x="89.15" y="15.2" width="209.14" height="118.7"/></g><g id="Bureau"><rect class="cls-3" x="278.62" y="194.9" width="232" height="18"/><rect class="cls-3" x="306.62" y="212.9" width="175.62" height="51"/></g></g><g id="Ensemble_d_élève" data-name="Ensemble d&apos;élève"><g id="Ligne2"><g id="Eleve1_-_copie_6" data-name="Eleve1 - copie 6"><circle class="cls-4" cx="147.12" cy="255.71" r="39.69"/><path class="cls-5" d="M302.38,653.88a76.13,76.13,0,0,1,152.25,0" transform="translate(-231.38 -273.1)"/></g><g id="Eleve1_-_copie_5" data-name="Eleve1 - copie 5"><circle class="cls-4" cx="274.12" cy="255.71" r="39.69"/><path class="cls-5" d="M429.38,653.88a76.13,76.13,0,0,1,152.25,0" transform="translate(-231.38 -273.1)"/></g><g id="Eleve1_-_copie_4" data-name="Eleve1 - copie 4"><circle class="cls-4" cx="404.12" cy="255.71" r="39.69"/><path class="cls-5" d="M559.38,653.88a76.13,76.13,0,0,1,152.25,0" transform="translate(-231.38 -273.1)"/></g></g><g id="Ligne1"><g id="Eleve1_-_copie_3" data-name="Eleve1 - copie 3"><circle class="cls-4" cx="465.12" cy="339.71" r="39.69"/><path class="cls-5" d="M620.38,737.88a76.13,76.13,0,0,1,152.25,0" transform="translate(-231.38 -273.1)"/></g><g id="Eleve1_-_copie_2" data-name="Eleve1 - copie 2"><circle class="cls-4" cx="335.12" cy="339.71" r="39.69"/><path class="cls-5" d="M490.38,737.88a76.13,76.13,0,0,1,152.25,0" transform="translate(-231.38 -273.1)"/></g><g id="Eleve1_-_copie" data-name="Eleve1 - copie"><circle class="cls-4" cx="207.12" cy="339.71" r="39.69"/><path class="cls-5" d="M362.38,737.88a76.13,76.13,0,0,1,152.25,0" transform="translate(-231.38 -273.1)"/></g><g id="Eleve1"><circle class="cls-4" cx="76.12" cy="339.71" r="39.69"/><path class="cls-5" d="M231.38,737.88a76.13,76.13,0,0,1,152.25,0" transform="translate(-231.38 -273.1)"/></g></g></g></svg>