<svg xmlns="http://www.w3.org/2000/svg" viewBox="0 0 751.5 751.4"><defs><style>.cls-1{fill:#fff;}.cls-2{fill:#ffdcad;}.cls-3{fill:#754c29;}.cls-4,.cls-8{fill:#e5b38e;}.cls-5,.cls-7{fill:none;}.cls-5{stroke:#f18b7d;}.cls-5,.cls-7,.cls-8{stroke-miterlimit:10;}.cls-6{fill:#f18b7d;}.cls-7{stroke:#fec20f;stroke-width:5px;}.cls-8{stroke:#e5b38e;}.cls-9{fill:#231f20;}</style></defs><title>non admin</title><g id="Fond"><path class="cls-1" d="M898.8,415.56A363.71,363.71,0,0,1,434.89,765.35c-70.65-20.18-134.06-62.1-180.82-118.71a363.38,363.38,0,0,1-81.74-203.11C166.7,368,184.57,291.85,223.88,227.07A367.21,367.21,0,0,1,385,84c69.13-31.47,148.21-40.14,222.6-25A363.09,363.09,0,0,1,898.8,415.56c0,7.72,12,7.73,12,0-.14-77.63-24.26-154.33-69.39-217.58A379.31,379.31,0,0,0,663.86,62.48c-73.95-27.1-156.45-29.93-232.15-8.29A375.95,375.95,0,0,0,213.52,610.11C252.67,674.64,311.36,726.94,380.19,758a379.18,379.18,0,0,0,230.64,25.67c74.4-15.15,143.44-53.6,195.86-108.48,52.62-55.08,88-126,99.57-201.29a387.43,387.43,0,0,0,4.54-58.33C910.82,407.84,898.82,407.82,898.8,415.56Z" transform="translate(-159.3 -39.83)"/><ellipse class="cls-2" cx="380.7" cy="381.86" rx="168" ry="185.31"/></g><g id="Visage"><path class="cls-3" d="M599.14,243.21l0-.46h0c0,.15,0,.31,0,.46a123.61,123.61,0,0,0-43.45-8.35l27.65,60.62c0,27.27,30.25,49.34,67.63,49.34l62.36,59.32C713.33,332.39,659.62,266,599.14,243.21Z" transform="translate(-159.3 -39.83)"/><path class="cls-3" d="M396,308.65l0,0c-7.68,0-13.9-6.92-13.9-15.48,0,17.69,1.2,32.11,2.71,33.06a130.72,130.72,0,0,0-16,62.45C360.81,407,355.63,418,335.33,418c29.91,0,55.62-10.57,67.08-25.76,49.4,7.87,62.84-17,77.74-44.31l-6.25,22.73c24.23,4.68,29.72-9.72,36-25.85L500.25,374c26.2-4.8,44.69-16.18,47.81-29.14l.19-.77-.2.9-5.57,24.85c27.51,0,40.83-33.19,40.83-74.26l-27.62-60.67C488,234.86,428.78,264.39,396,308.65Z" transform="translate(-159.3 -39.83)"/><path class="cls-3" d="M639.27,222.49c-21.39-5-41,6.37-39.67,20.74C604.23,232.83,619.47,230.52,639.27,222.49Z" transform="translate(-159.3 -39.83)"/><path class="cls-3" d="M599.6,243.39c0-.05,0-.1,0-.16l0,.07Z" transform="translate(-159.3 -39.83)"/><path class="cls-3" d="M559.47,222.48c19.85,7.85,35.13,10.14,39.69,20.27C600,228.61,580.61,217.52,559.47,222.48Z" transform="translate(-159.3 -39.83)"/><path class="cls-4" d="M540.07,473c4.28,7.62,7.77,16,8.62,24.76.54,5.64.28,13.05-5,16.46-2.7,1.73-.2,6.06,2.52,4.32,15.61-10,5-36.06-1.78-48.06-1.58-2.81-5.9-.29-4.32,2.52Z" transform="translate(-159.3 -39.83)"/><line class="cls-5" x1="392.07" y1="453.81" x2="392.07" y2="453.81"/><path class="cls-6" d="M501.38,549.15c-1,.09-1.46-.61-.48,0a13.32,13.32,0,0,0,1.94.86c2.27,1,4.56,1.91,6.88,2.76A116.55,116.55,0,0,0,532,558.57c21.36,3.29,42.79.13,61.72-10.5,3.37-1.89.35-7.07-3-5.18-19.06,10.69-41,13.28-62.25,9a117.6,117.6,0,0,1-19.05-5.57c-2-.78-5.74-3.36-8-3.15-3.81.35-3.85,6.35,0,6Z" transform="translate(-159.3 -39.83)"/><circle class="cls-7" cx="303.62" cy="402.22" r="52"/><path class="cls-7" d="M514.7,437.25c0-1.33,23.19-34.49,53.92-2.41" transform="translate(-159.3 -39.83)"/><path class="cls-3" d="M968,412.46" transform="translate(-159.3 -39.83)"/><path class="cls-3" d="M797,456.46" transform="translate(-159.3 -39.83)"/><path class="cls-2" d="M379.05,482a31.46,31.46,0,0,1-34.51-28.08c-1.77-17.28-5.54-41.38,28.08-34.51" transform="translate(-159.3 -39.83)"/><path class="cls-8" d="M377.87,467.48A19.92,19.92,0,0,1,356,449.7c-1.12-10.94-3-25.7,17.78-21.85" transform="translate(-159.3 -39.83)"/><path class="cls-2" d="M700.11,482.56a31.46,31.46,0,0,0,34.51-28.08c1.77-17.28,5.54-41.38-28.08-34.51" transform="translate(-159.3 -39.83)"/><path class="cls-8" d="M701.29,468.08a19.92,19.92,0,0,0,21.85-17.78c1.12-10.94,3-25.7-17.78-21.85" transform="translate(-159.3 -39.83)"/><circle class="cls-7" cx="461.31" cy="396.51" r="52"/></g><g id="oeil"><path class="cls-1" d="M465,426c-20.9,1.55-31,15.1-35.26,29,0,0,48.62,6.42,75-6.61C494,435.3,501,423.38,465,426Z" transform="translate(-159.3 -39.83)"/><circle class="cls-9" cx="310.01" cy="402.22" r="12.88"/><circle class="cls-1" cx="310.76" cy="400.3" r="3.79"/><path class="cls-1" d="M622.84,420.17c22.16,1.51,30.66,14.2,35.26,29,0,0-48.62,6.42-75-6.61C589.75,429.67,587,417.72,622.84,420.17Z" transform="translate(-159.3 -39.83)"/><circle class="cls-9" cx="451.92" cy="394.55" r="12.88"/><circle class="cls-1" cx="450.17" cy="393.63" r="3.79"/></g></svg>