<?xml version="1.0" encoding="utf-8"?>
<!-- Generator: Adobe Illustrator 21.0.0, SVG Export Plug-In . SVG Version: 6.00 Build 0)  -->
<svg version="1.1" id="Layer_1" xmlns="http://www.w3.org/2000/svg" xmlns:xlink="http://www.w3.org/1999/xlink" x="0px" y="0px"
	 viewBox="0 0 514 414" style="enable-background:new 0 0 514 414;" xml:space="preserve">
<style type="text/css">
	.st0{fill:#FFFFFF;}
</style>
<g>
	<circle class="st0" cx="61" cy="61" r="61"/>
</g>
<g>
	<circle class="st0" cx="135" cy="61" r="61"/>
</g>
<g>
	<circle class="st0" cx="205" cy="61" r="61"/>
</g>
<g>
	<circle class="st0" cx="292" cy="61" r="61"/>
</g>
<g>
	<circle class="st0" cx="378" cy="61" r="61"/>
</g>
<g>
	<circle class="st0" cx="453" cy="61" r="61"/>
</g>
<g>
	<circle class="st0" cx="61" cy="142" r="61"/>
</g>
<g>
	<path class="st0" d="M199,142c0,33.7-30.3,61-64,61s-61-27.3-61-61s27.3-61,61-61S199,108.3,199,142z"/>
</g>
<g>
	<circle class="st0" cx="205" cy="142" r="61"/>
</g>
<g>
	<circle class="st0" cx="292" cy="142" r="61"/>
</g>
<g>
	<circle class="st0" cx="378" cy="142" r="61"/>
</g>
<g>
	<circle class="st0" cx="453" cy="142" r="61"/>
</g>
<g>
	<circle class="st0" cx="61" cy="211" r="61"/>
</g>
<g>
	<circle class="st0" cx="135" cy="211" r="61"/>
</g>
<g>
	<circle class="st0" cx="205" cy="211" r="61"/>
</g>
<g>
	<circle class="st0" cx="292" cy="211" r="61"/>
</g>
<g>
	<circle class="st0" cx="378" cy="211" r="61"/>
</g>
<g>
	<circle class="st0" cx="453" cy="211" r="61"/>
</g>
<g>
	<circle class="st0" cx="61" cy="281" r="61"/>
</g>
<g>
	<circle class="st0" cx="135" cy="281" r="61"/>
</g>
<g>
	<circle class="st0" cx="205" cy="281" r="61"/>
</g>
<g>
	<circle class="st0" cx="292" cy="281" r="61"/>
</g>
<g>
	<circle class="st0" cx="378" cy="281" r="61"/>
</g>
<g>
	<circle class="st0" cx="453" cy="281" r="61"/>
</g>
<g>
	<circle class="st0" cx="61" cy="353" r="61"/>
</g>
<g>
	<circle class="st0" cx="135" cy="353" r="61"/>
</g>
<g>
	<circle class="st0" cx="205" cy="353" r="61"/>
</g>
<g>
	<circle class="st0" cx="292" cy="353" r="61"/>
</g>
<g>
	<circle class="st0" cx="378" cy="353" r="61"/>
</g>
<g>
	<circle class="st0" cx="453" cy="353" r="61"/>
</g>
</svg>
