<?xml version="1.0" encoding="utf-8"?>
<!-- Generator: Adobe Illustrator 21.0.0, SVG Export Plug-In . SVG Version: 6.00 Build 0)  -->
<svg version="1.1" xmlns="http://www.w3.org/2000/svg" xmlns:xlink="http://www.w3.org/1999/xlink" x="0px" y="0px"
	 viewBox="0 0 981.1 633.1" style="enable-background:new 0 0 981.1 633.1;" xml:space="preserve">
<style type="text/css">
	.st0{fill:#81C785;}
	.st1{fill:#07B153;}
</style>
<g id="Appareil">
	<path class="st0" d="M825.4,595.4H167.9c-51.7,0-93.9-42.3-93.9-93.9V174.1c0-51.7,42.3-93.9,93.9-93.9h657.6
		c51.7,0,93.9,42.3,93.9,93.9v327.3C919.4,553.1,877.1,595.4,825.4,595.4z"/>
	<circle class="st1" cx="496.6" cy="337.8" r="207.5"/>
	<circle class="st0" cx="496.6" cy="337.8" r="133.6"/>
	<path class="st0" d="M773.5,29.6H650.1c-16.5,0-29.8,13.3-29.8,29.8v22.2c0,16.5,13.3,29.8,29.8,29.8h123.4
		c16.5,0,29.8-13.3,29.8-29.8V59.4C803.3,42.9,790,29.6,773.5,29.6z"/>
</g>
<g id="fléche">
</g>
</svg>
